<?xml version="1.0" standalone="no"?>
<!DOCTYPE svg PUBLIC "-//W3C//DTD SVG 20010904//EN"
 "http://www.w3.org/TR/2001/REC-SVG-20010904/DTD/svg10.dtd">
<svg version="1.0" xmlns="http://www.w3.org/2000/svg"
 width="16.000000pt" height="16.000000pt" viewBox="0 0 16.000000 16.000000"
 preserveAspectRatio="xMidYMid meet">
<metadata>
Created by potrace 1.11, written by Peter Selinger 2001-2013
</metadata>
<g transform="translate(0.000000,16.000000) scale(0.002000,-0.002000)"
fill="#000000" stroke="none">
<path d="M3897 7044 c-1 -1 -54 -5 -117 -9 -63 -3 -117 -8 -120 -10 -3 -1 -32
-6 -65 -10 -33 -3 -78 -10 -100 -15 -22 -5 -56 -11 -75 -14 -130 -21 -375 -94
-545 -163 -122 -50 -361 -167 -386 -189 -8 -8 -19 -14 -23 -14 -5 0 -65 -38
-135 -84 -369 -247 -697 -585 -916 -944 l-39 -64 -175 7 c-236 8 -362 13 -509
19 -74 4 -122 2 -120 -3 3 -9 251 -330 273 -355 6 -6 53 -65 105 -131 52 -66
105 -131 117 -145 28 -30 28 -28 2 -120 -11 -41 -24 -93 -29 -115 -29 -137
-42 -205 -46 -240 -3 -22 -7 -49 -9 -60 -31 -148 -27 -619 6 -840 6 -38 13
-83 15 -100 2 -16 15 -77 28 -135 23 -100 24 -126 7 -115 -5 2 -60 7 -122 10
-112 6 -165 9 -324 20 -44 3 -114 8 -155 10 -41 2 -121 7 -177 11 l-102 6 0
-401 0 -401 22 -1 c85 -3 407 -9 772 -14 237 -3 431 -9 433 -13 4 -13 125
-197 149 -227 13 -16 27 -35 31 -40 117 -161 319 -375 482 -511 89 -74 304
-234 316 -234 4 0 21 -10 38 -23 17 -13 76 -48 131 -78 473 -258 945 -380
1475 -382 129 0 347 10 359 17 3 2 34 7 69 10 34 4 86 11 115 17 29 6 61 12
72 14 42 7 171 36 200 45 17 6 75 24 130 41 201 63 455 176 592 262 24 15 45
27 47 27 5 0 67 39 91 57 6 5 46 32 90 62 313 214 632 548 835 878 45 72 45
72 90 73 25 0 294 1 598 1 l552 1 -2 381 -3 381 -95 -3 c-52 -2 -126 -5 -165
-6 -38 -2 -167 -6 -285 -10 -118 -4 -241 -8 -272 -10 -61 -3 -64 -1 -48 39 15
40 68 313 75 391 4 39 9 79 12 90 3 11 7 129 9 263 l4 243 32 27 c76 63 75 62
92 167 8 55 18 123 21 150 6 50 12 93 19 130 2 11 7 43 10 70 4 28 9 64 12 80
2 17 13 91 24 165 l20 135 -39 40 c-21 22 -81 85 -132 139 -52 55 -128 134
-170 176 -72 72 -79 77 -115 74 -85 -7 -199 -5 -201 3 -4 11 -126 197 -133
203 -4 3 -21 28 -40 55 -19 28 -36 52 -40 55 -3 3 -15 17 -26 32 -134 175
-391 421 -589 564 -526 382 -1120 579 -1778 588 -81 2 -148 2 -150 0z"/>
</g>
</svg>
